<svg width="178" height="21" viewBox="0 0 178 21" fill="none" xmlns="http://www.w3.org/2000/svg">
<path d="M0 12.3864V8.8731L14.132 2.68489V6.72719L4.4564 10.5898L4.58688 10.3802V10.8793L4.4564 10.6697L14.132 14.5323V18.5746L0 12.3864Z" fill="#DC274B"/>
<path d="M33.3427 12.3864L19.2107 18.5746V14.5323L28.8863 10.6697L28.7558 10.8793V10.3802L28.8863 10.5898L19.2107 6.72719V2.68489L33.3427 8.8731V12.3864Z" fill="#DC274B"/>
<path d="M44.2102 20.7205V0.279468H52.32C53.8791 0.279468 55.2073 0.575571 56.3047 1.16778C57.4021 1.75333 58.2385 2.56844 58.8139 3.61312C59.3961 4.65114 59.6871 5.84886 59.6871 7.20627C59.6871 8.56369 59.3927 9.76141 58.8039 10.7994C58.2151 11.8375 57.3619 12.6459 56.2445 13.2248C55.1337 13.8037 53.7888 14.0932 52.2096 14.0932H47.0406V10.6298H51.507C52.3435 10.6298 53.0326 10.4867 53.5746 10.2006C54.1233 9.90779 54.5315 9.50523 54.7992 8.99287C55.0735 8.47386 55.2107 7.87833 55.2107 7.20627C55.2107 6.52757 55.0735 5.93536 54.7992 5.42966C54.5315 4.9173 54.1233 4.52139 53.5746 4.24192C53.026 3.9558 52.3301 3.81274 51.487 3.81274H48.5562V20.7205H44.2102Z" fill="#DC274B"/>
<path d="M62.51 20.7205V0.279468H70.6199C72.1722 0.279468 73.4971 0.555609 74.5945 1.10789C75.6986 1.65352 76.5383 2.42871 77.1138 3.43346C77.6959 4.43156 77.987 5.60599 77.987 6.95675C77.987 8.31416 77.6926 9.48194 77.1037 10.4601C76.5149 11.4316 75.6618 12.1768 74.5443 12.6958C73.4336 13.2148 72.0886 13.4743 70.5095 13.4743H65.0795V10.001H69.8069C70.6366 10.001 71.3258 9.88783 71.8745 9.6616C72.4232 9.43536 72.8313 9.09601 73.099 8.64354C73.3733 8.19106 73.5105 7.6288 73.5105 6.95675C73.5105 6.27804 73.3733 5.7058 73.099 5.24002C72.8313 4.77424 72.4198 4.42158 71.8644 4.18203C71.3158 3.93584 70.6232 3.81274 69.7868 3.81274H66.856V20.7205H62.51ZM73.6109 11.4183L78.7197 20.7205H73.922L68.9236 11.4183H73.6109Z" fill="#DC274B"/>
<path d="M99.9478 10.5C99.9478 12.7291 99.5229 14.6255 98.6731 16.1892C97.83 17.7529 96.6791 18.9472 95.2204 19.7723C93.7684 20.5908 92.1357 21 90.3224 21C88.4957 21 86.8563 20.5875 85.4043 19.7624C83.9523 18.9373 82.8047 17.7429 81.9616 16.1792C81.1185 14.6155 80.697 12.7224 80.697 10.5C80.697 8.27091 81.1185 6.37453 81.9616 4.81084C82.8047 3.24715 83.9523 2.05608 85.4043 1.23764C86.8563 0.412548 88.4957 0 90.3224 0C92.1357 0 93.7684 0.412548 95.2204 1.23764C96.6791 2.05608 97.83 3.24715 98.6731 4.81084C99.5229 6.37453 99.9478 8.27091 99.9478 10.5ZM95.5416 10.5C95.5416 9.05608 95.3241 7.8384 94.8892 6.84696C94.4609 5.85551 93.8554 5.10361 93.0725 4.59126C92.2896 4.0789 91.3729 3.82272 90.3224 3.82272C89.2718 3.82272 88.3551 4.0789 87.5722 4.59126C86.7894 5.10361 86.1805 5.85551 85.7455 6.84696C85.3173 7.8384 85.1032 9.05608 85.1032 10.5C85.1032 11.9439 85.3173 13.1616 85.7455 14.153C86.1805 15.1445 86.7894 15.8964 87.5722 16.4087C88.3551 16.9211 89.2718 17.1773 90.3224 17.1773C91.3729 17.1773 92.2896 16.9211 93.0725 16.4087C93.8554 15.8964 94.4609 15.1445 94.8892 14.153C95.3241 13.1616 95.5416 11.9439 95.5416 10.5Z" fill="#DC274B"/>
<path d="M120.009 6.6673H118.724C118.591 5.97529 118.34 5.30656 117.972 4.66112C117.604 4.00903 117.129 3.42348 116.546 2.90447C115.971 2.3788 115.302 1.96293 114.539 1.65684C113.776 1.35076 112.933 1.19772 112.01 1.19772C110.658 1.19772 109.413 1.55703 108.276 2.27567C107.145 2.98764 106.238 4.03565 105.556 5.41968C104.88 6.80371 104.542 8.49715 104.542 10.5C104.542 12.5162 104.88 14.2163 105.556 15.6003C106.238 16.9843 107.145 18.0323 108.276 18.7443C109.413 19.4496 110.658 19.8023 112.01 19.8023C112.933 19.8023 113.776 19.6526 114.539 19.3531C115.302 19.0471 115.971 18.6345 116.546 18.1155C117.129 17.5898 117.604 17.0009 117.972 16.3489C118.34 15.6968 118.591 15.0247 118.724 14.3327H120.009C119.862 15.1578 119.578 15.9663 119.156 16.7581C118.741 17.5499 118.192 18.2685 117.51 18.914C116.834 19.5528 116.034 20.0618 115.111 20.4411C114.194 20.8137 113.161 21 112.01 21C110.297 21 108.788 20.5675 107.483 19.7025C106.178 18.8308 105.154 17.6065 104.412 16.0295C103.676 14.4525 103.308 12.6093 103.308 10.5C103.308 8.39069 103.676 6.54753 104.412 4.97053C105.154 3.39354 106.178 2.17253 107.483 1.30751C108.788 0.435836 110.297 0 112.01 0C113.161 0 114.194 0.189639 115.111 0.568917C116.034 0.941541 116.834 1.44724 117.51 2.08603C118.192 2.71816 118.741 3.43013 119.156 4.22196C119.578 5.01378 119.862 5.8289 120.009 6.6673Z" fill="#DC274B"/>
<path d="M141.182 10.5C141.182 12.6093 140.814 14.4525 140.078 16.0295C139.342 17.5998 138.318 18.8208 137.007 19.6925C135.702 20.5642 134.196 21 132.49 21C130.777 21 129.265 20.5642 127.953 19.6925C126.649 18.8142 125.628 17.5898 124.892 16.0195C124.156 14.4425 123.788 12.6027 123.788 10.5C123.788 8.39069 124.156 6.55086 124.892 4.98051C125.635 3.41017 126.659 2.18916 127.963 1.31749C129.268 0.439164 130.777 0 132.49 0C134.196 0 135.702 0.435836 137.007 1.30751C138.318 2.17918 139.342 3.40352 140.078 4.98051C140.814 6.55086 141.182 8.39069 141.182 10.5ZM139.958 10.5C139.958 8.60361 139.636 6.96008 138.994 5.56939C138.358 4.17871 137.478 3.10409 136.354 2.34553C135.23 1.58032 133.942 1.19772 132.49 1.19772C131.038 1.19772 129.75 1.577 128.626 2.33555C127.502 3.08745 126.618 4.16207 125.976 5.55941C125.34 6.9501 125.023 8.59696 125.023 10.5C125.023 12.3831 125.337 14.0233 125.966 15.4206C126.602 16.8113 127.482 17.8893 128.606 18.6545C129.73 19.4197 131.025 19.8023 132.49 19.8023C133.942 19.8023 135.23 19.423 136.354 18.6644C137.478 17.8992 138.358 16.8213 138.994 15.4306C139.636 14.0399 139.958 12.3964 139.958 10.5Z" fill="#DC274B"/>
<path d="M151.786 20.7205H146.085V0.279468H152.228C154.155 0.279468 155.804 0.685361 157.176 1.49715C158.548 2.30894 159.598 3.47338 160.327 4.99049C161.064 6.50095 161.428 8.31416 161.422 10.4301C161.415 12.5927 161.033 14.4425 160.277 15.9796C159.521 17.51 158.427 18.6844 156.995 19.5029C155.563 20.3146 153.827 20.7205 151.786 20.7205ZM147.34 19.5627H151.736C153.569 19.5627 155.115 19.2001 156.373 18.4748C157.631 17.7429 158.581 16.6949 159.223 15.3308C159.872 13.9667 160.194 12.3332 160.187 10.4301C160.187 8.55371 159.876 6.94677 159.254 5.60932C158.631 4.26521 157.725 3.23384 156.534 2.51521C155.349 1.79658 153.897 1.43726 152.177 1.43726H147.34V19.5627Z" fill="#DC274B"/>
<path d="M166.317 20.7205V0.279468H177.759V1.43726H167.572V9.91112H177.147V11.0689H167.572V19.5627H178V20.7205H166.317Z" fill="#DC274B"/>
</svg>
